<svg width="27" height="27" viewBox="0 0 27 27" fill="none" xmlns="http://www.w3.org/2000/svg">
<path fill-rule="evenodd" clip-rule="evenodd" d="M14.6247 12.3749V7.8772C14.6247 7.57883 14.5062 7.29268 14.2952 7.0817C14.0842 6.87072 13.7981 6.7522 13.4997 6.7522C13.2013 6.7522 12.9152 6.87072 12.7042 7.0817C12.4932 7.29268 12.3747 7.57883 12.3747 7.8772V12.3749H7.87695C7.57858 12.3749 7.29244 12.4935 7.08146 12.7045C6.87048 12.9154 6.75195 13.2016 6.75195 13.4999C6.75195 13.7983 6.87048 14.0845 7.08146 14.2954C7.29244 14.5064 7.57858 14.6249 7.87695 14.6249H12.3747V19.1227C12.3747 19.4211 12.4932 19.7072 12.7042 19.9182C12.9152 20.1292 13.2013 20.2477 13.4997 20.2477C13.7981 20.2477 14.0842 20.1292 14.2952 19.9182C14.5062 19.7072 14.6247 19.4211 14.6247 19.1227V14.6249H19.1225C19.4208 14.6249 19.707 14.5064 19.9179 14.2954C20.1289 14.0845 20.2475 13.7983 20.2475 13.4999C20.2475 13.2016 20.1289 12.9154 19.9179 12.7045C19.707 12.4935 19.4208 12.3749 19.1225 12.3749H14.6247Z" fill="white"/>
</svg>
